<svg xmlns="http://www.w3.org/2000/svg" viewBox="0 0 120 170" fill="none">
  <!-- 卡片背景 -->
  <rect width="120" height="170" rx="10" fill="#1a237e"/>
  <!-- 内边框 -->
  <rect x="6" y="6" width="108" height="158" rx="7" fill="none" stroke="#ffd54f" stroke-width="1.5"/>
  <!-- 内部菱形装饰背景 -->
  <rect x="12" y="12" width="96" height="146" rx="5" fill="#283593"/>
  <!-- 菱形图案 -->
  <g opacity="0.3">
    <path d="M60 20L75 45L60 70L45 45Z" fill="#7c4dff"/>
    <path d="M30 45L45 70L30 95L15 70Z" fill="#7c4dff"/>
    <path d="M90 45L105 70L90 95L75 70Z" fill="#7c4dff"/>
    <path d="M60 70L75 95L60 120L45 95Z" fill="#7c4dff"/>
    <path d="M30 95L45 120L30 145L15 120Z" fill="#7c4dff"/>
    <path d="M90 95L105 120L90 145L75 120Z" fill="#7c4dff"/>
    <path d="M60 120L75 145L60 170L45 145Z" fill="#7c4dff"/>
  </g>
  <!-- 中心圆形装饰 -->
  <circle cx="60" cy="85" r="22" fill="none" stroke="#ffd54f" stroke-width="1.2"/>
  <circle cx="60" cy="85" r="16" fill="none" stroke="#ffd54f" stroke-width="0.8" opacity="0.6"/>
  <!-- 中心星星 -->
  <path d="M60 70L63.5 79.5L73 80L65.5 86L68 95.5L60 90L52 95.5L54.5 86L47 80L56.5 79.5Z" fill="#ffd54f"/>
  <!-- 四角装饰 -->
  <circle cx="22" cy="22" r="4" fill="#ffd54f" opacity="0.5"/>
  <circle cx="98" cy="22" r="4" fill="#ffd54f" opacity="0.5"/>
  <circle cx="22" cy="148" r="4" fill="#ffd54f" opacity="0.5"/>
  <circle cx="98" cy="148" r="4" fill="#ffd54f" opacity="0.5"/>
</svg>
