<svg xmlns="http://www.w3.org/2000/svg" viewBox="0 0 80 80" fill="none">
  <defs>
    <linearGradient id="goldMain" x1="0" y1="0" x2="1" y2="1">
      <stop offset="0%" stop-color="#ffe082"/>
      <stop offset="50%" stop-color="#ffc107"/>
      <stop offset="100%" stop-color="#ff8f00"/>
    </linearGradient>
    <radialGradient id="goldGlow" cx="35%" cy="30%">
      <stop offset="0%" stop-color="#fff9c4" stop-opacity="0.6"/>
      <stop offset="100%" stop-color="#ffc107" stop-opacity="0"/>
    </radialGradient>
  </defs>
  <!-- 外发光 -->
  <ellipse cx="40" cy="42" rx="36" ry="34" fill="url(#goldGlow)"/>
  <!-- 主体 -->
  <path d="M12 42 L22 16 L40 8 L58 16 L68 42 L60 60 L40 68 L20 60Z" fill="url(#goldMain)"/>
  <!-- 顶面高光 -->
  <path d="M22 16 L40 8 L58 16 L40 28Z" fill="#ffeb3b"/>
  <!-- 左面 -->
  <path d="M12 42 L22 16 L40 28 L28 46Z" fill="#ffa000"/>
  <!-- 右面高光 -->
  <path d="M58 16 L68 42 L52 46 L40 28Z" fill="#ffca28"/>
  <!-- 底面暗 -->
  <path d="M20 60 L40 68 L60 60 L52 46 L28 46Z" fill="#e65100" opacity="0.6"/>
  <!-- 左底 -->
  <path d="M12 42 L28 46 L20 60Z" fill="#ef6c00"/>
  <!-- 右底 -->
  <path d="M68 42 L52 46 L60 60Z" fill="#f57c00"/>
  <!-- 中心面 -->
  <path d="M28 46 L40 28 L52 46Z" fill="#ffb300" opacity="0.7"/>
  <!-- 闪光星 -->
  <g opacity="0.9">
    <path d="M26 20 L27.5 16 L29 20 L33 21.5 L29 23 L27.5 27 L26 23 L22 21.5Z" fill="#fff"/>
  </g>
  <g opacity="0.6">
    <path d="M52 32 L53 29 L54 32 L57 33 L54 34 L53 37 L52 34 L49 33Z" fill="#fff"/>
  </g>
  <circle cx="35" cy="24" r="1.5" fill="#fff" opacity="0.7"/>
</svg>
